<svg id="Layer_1" enable-background="new 0 0 100 100" viewBox="0 0 100 100" xmlns="http://www.w3.org/2000/svg"><path d="m11.4356422 5.3217816c-4.9350228 0-8.9356441 4.0006213-8.9356441 8.9356441v8.9356441c0 4.9350071 4.0006213 8.9356422 8.9356441 8.9356422h8.9356441c4.9350071 0 8.9356441-4.0006351 8.9356441-8.9356422v-1.489275h46.0107269c1.64505 0 2.9785461 1.3334961 2.9785461 2.978548v20.1051979c0 1.6450539-1.3334961 2.97855-2.9785461 2.97855h-11.914192v-2.2339137c0-4.9350052-4.0006332-8.9356422-8.9356422-8.9356422h-8.9356461c-4.9350052 0-8.9356422 4.0006371-8.9356422 8.9356422v2.2339134h-11.9141923c-4.9350071 0-8.9356441 4.0006332-8.9356441 8.9356422v18.6159248c0 4.9350128 4.0006371 8.9356461 8.9356441 8.9356461h46.0107269v1.4892731c0 4.9350052 4.0006332 8.9356384 8.9356461 8.9356384h8.9356461c4.9350052 0 8.9356384-4.0006332 8.9356384-8.9356384v-8.9356461c0-4.9350128-4.0006332-8.9356461-8.9356384-8.9356461h-8.9356461c-4.9350128 0-8.9356461 4.0006332-8.9356461 8.9356461v1.4892731h-46.0107269c-1.645052 0-2.978548-1.3334961-2.978548-2.9785461v-18.6159249c0-1.64505 1.3334961-2.9785461 2.978548-2.9785461h11.9141922v.7446365c0 4.935009 4.0006371 8.9356422 8.9356422 8.9356422h8.9356461c4.935009 0 8.9356422-4.0006332 8.9356422-8.9356422v-.7446365h11.9141922c4.9350128 0 8.9356461-4.0006371 8.9356461-8.9356461v-20.1051979c0-4.9350071-4.0006332-8.9356432-8.9356461-8.9356432h-46.0107269v-1.489274c0-4.9350224-4.0006371-8.9356441-8.9356441-8.9356441h-8.9356442z"/></svg>